<svg width="90" height="90" viewBox="0 0 90 90" fill="none" xmlns="http://www.w3.org/2000/svg">
<path d="M0 10C0 4.47715 4.47715 0 10 0H80C85.5228 0 90 4.47715 90 10V80C90 85.5228 85.5228 90 80 90H10C4.47715 90 0 85.5228 0 80V10Z" fill="#036635"/>
<path d="M36 17.1609L36.641 14.6162L37.4103 12.5805L38.5641 10.9519L40.1026 9.7304L41.641 8.91609L43.4359 8.30536L45.4872 8.10179L47.2821 8L49.3333 8.10179L51.2564 8.30536L53.3077 8.91609L54.5897 9.62861L55.6154 10.5447L56.5128 11.6644L57.0256 13.0894L57.2821 13.9037L57.4103 14.9216L57.2821 16.0413L56.641 17.7717L55.6154 18.9931L53.9487 20.2146L52.0256 21.1307L50.2308 21.8432L52.6667 30.3934L61 59.0977L59.2051 59.3012L56.8974 59.912L54.2051 60.7263L51.641 61.6424L49.9744 62.3549L48.3077 63.1692L46.5128 64.0853L45.1026 64.7978L43.6923 65.7139L42.2821 66.8336L41 67.9532L39.9744 68.9711V82H36V17.1609Z" fill="white"/>
</svg>
